# xmcd
#
# Track frame offsets: 
#        150
#        14775
#        28140
#
# Disc length: 554 seconds
#
# Revision: 1
# Processed by: cddbd v1.5.2PL0 Copyright (c) Steve Scherf et al.
# Submitted via: ExactAudioCopy v0.99pb4
#
DISCID=22022803
DTITLE=Die jungen Zillertaler - Auf der Bruck trara
DYEAR=2005
DGENRE=Apre Ski
TTITLE0=Die jungen Zillertaler - Auf der Bruck trara ( RMX by DJ Zille
TTITLE0=rtaler )
TTITLE1=Die jungen Zillertaler - Auf der Bruck trara
TTITLE2=Die jungen Zillertaler - Auf der Bruck trara ( Karaoke Version
TTITLE2=)
EXTD=
EXTT0=
EXTT1=
EXTT2=
PLAYORDER=
